<?xml version="1.0" standalone="no"?>
<!DOCTYPE svg PUBLIC "-//W3C//DTD SVG 20010904//EN"
 "http://www.w3.org/TR/2001/REC-SVG-20010904/DTD/svg10.dtd">
<svg version="1.0" xmlns="http://www.w3.org/2000/svg"
 width="1600.000000pt" height="1600.000000pt" viewBox="0 0 1600.000000 1600.000000"
 preserveAspectRatio="xMidYMid meet">
<metadata>
Created by potrace 1.11, written by Peter Selinger 2001-2013
</metadata>
<g transform="translate(0.000000,1600.000000) scale(0.100000,-0.100000)"
fill="#000000" stroke="none">
<path d="M3410 15985 c-124 -17 -129 -18 -245 -49 -503 -134 -939 -499 -1169
-979 -45 -93 -119 -300 -130 -362 -3 -16 -13 -64 -23 -105 -16 -71 -17 -492
-20 -7161 l-3 -7086 6060 0 6060 0 -3 7071 c-1 3889 -5 7080 -8 7091 -4 11
-10 40 -14 65 -49 318 -214 664 -434 910 -301 336 -673 537 -1121 604 -137 20
-8803 21 -8950 1z m8886 -1222 c220 -77 358 -224 413 -439 17 -68 18 -320 18
-6460 0 -3514 -1 -6394 -4 -6399 -2 -7 -209 -10 -606 -10 l-602 0 -1 1510 c-1
831 -2 1512 -3 1515 -1 4 -3005 5 -3021 1 -3 0 -5 -680 -5 -1511 0 -1000 -3
-1511 -10 -1513 -5 -2 -1232 -3 -2725 -3 l-2715 1 0 6415 c0 5505 2 6422 14
6465 18 64 63 157 97 204 65 87 178 173 274 209 111 41 -49 40 4485 38 l4330
-1 61 -22z"/>
<path d="M4246 13570 c-6 -10 -3 -1810 3 -1811 46 -6 3014 -2 3019 5 4 7 7
1682 3 1791 l-1 21 -1511 0 c-831 0 -1512 -3 -1513 -6z"/>
<path d="M8487 13565 c-6 -19 -2 -1790 5 -1800 4 -7 513 -9 1500 -8 821 1
1500 2 1508 2 13 1 15 108 15 906 0 498 -2 906 -5 906 -3 1 -683 2 -1512 3
-1027 1 -1509 -2 -1511 -9z"/>
<path d="M4245 10540 c-1 -3 -2 -411 -2 -907 0 -645 3 -903 11 -903 19 -1
2907 -1 2966 -1 l55 1 -2 888 c-1 488 -2 896 -2 907 -1 20 -4 20 -1512 20
-831 0 -1512 -2 -1514 -5z"/>
<path d="M8487 10535 c-3 -9 -1 -1776 2 -1800 1 -8 2262 -12 2971 -5 l55 0 -1
903 c-1 496 -2 904 -3 907 -2 10 -3021 5 -3024 -5z"/>
<path d="M4245 7510 c-1 -3 -2 -411 -2 -907 0 -818 2 -903 16 -904 107 -7
3004 -2 3009 5 4 7 7 1741 3 1801 -1 10 -3020 15 -3026 5z"/>
<path d="M8491 7510 c-11 -8 -7 -1810 4 -1811 6 -1 684 -2 1508 -2 989 -1
1501 1 1506 8 6 8 8 1755 2 1800 -1 10 -3006 15 -3020 5z"/>
<path d="M4243 3578 c0 -643 4 -908 11 -909 56 -5 3000 -2 3008 2 11 7 18
1808 8 1810 -3 1 -685 2 -1516 3 l-1511 1 0 -907z"/>
</g>
</svg>
